# MagicaVoxel @ Ephtracy

# group
g ArrowGun(without arrow)

# material
mtllib ArrowGun(without arrow).mtl
usemtl palette

# normals
vn -1 0 0
vn 1 0 0
vn 0 0 1
vn 0 0 -1
vn 0 -1 0
vn 0 1 0

# texcoords
vt 0.970703 0.5
vt 0.982422 0.5
vt 0.986328 0.5
vt 0.990234 0.5
vt 0.994141 0.5

# verts
v -1 0 0.5
v -1 0 -0.5
v -1 3 1.5
v -1 3 0.5
v -1 3 -0.5
v -1 3 -1.5
v -1 4 1.5
v -1 4 0.5
v -1 4 -0.5
v -1 4 -1.5
v -1 5 0.5
v -1 5 -0.5
v 0 5 0.5
v 0 5 -0.5
v 0 6 0.5
v 0 6 -0.5
v 3 2 0.5
v 3 2 -0.5
v 3 3 0.5
v 3 3 -0.5
v 5 1 1.5
v 5 1 -1.5
v 5 2 0.5
v 5 2 -0.5
v 5 3 1.5
v 5 3 0.5
v 5 3 -0.5
v 5 3 -1.5
v 0 0 0.5
v 0 0 -0.5
v 0 3 0.5
v 0 3 -0.5
v 1 5 0.5
v 1 5 -0.5
v 1 6 0.5
v 1 6 -0.5
v 5 3 1.5
v 5 3 0.5
v 5 3 -0.5
v 5 3 -1.5
v 5 4 1.5
v 5 4 0.5
v 5 4 -0.5
v 5 4 -1.5
v 5 5 0.5
v 5 5 -0.5
v 6 1 1.5
v 6 1 0.5
v 6 1 -0.5
v 6 1 -1.5
v 6 3 1.5
v 6 3 0.5
v 6 3 -0.5
v 6 3 -1.5
v 6 4 0.5
v 6 4 -0.5
v 7 1 0.5
v 7 1 -0.5
v 7 3 0.5
v 7 3 -0.5
v -1 3 1.5
v -1 4 1.5
v 0 3 1.5
v 0 4 1.5
v 4 3 1.5
v 4 4 1.5
v 5 1 1.5
v 5 3 1.5
v 5 4 1.5
v 6 1 1.5
v 6 3 1.5
v -1 0 0.5
v -1 3 0.5
v -1 4 0.5
v -1 5 0.5
v 0 0 0.5
v 0 3 0.5
v 0 4 0.5
v 0 5 0.5
v 0 6 0.5
v 1 4 0.5
v 1 5 0.5
v 1 6 0.5
v 3 2 0.5
v 3 3 0.5
v 4 3 0.5
v 4 4 0.5
v 4 5 0.5
v 5 2 0.5
v 5 3 0.5
v 5 4 0.5
v 5 5 0.5
v 6 1 0.5
v 6 3 0.5
v 6 4 0.5
v 7 1 0.5
v 7 3 0.5
v -1 0 -0.5
v -1 3 -0.5
v -1 4 -0.5
v -1 5 -0.5
v 0 0 -0.5
v 0 3 -0.5
v 0 4 -0.5
v 0 5 -0.5
v 0 6 -0.5
v 1 4 -0.5
v 1 5 -0.5
v 1 6 -0.5
v 3 2 -0.5
v 3 3 -0.5
v 4 3 -0.5
v 4 4 -0.5
v 4 5 -0.5
v 5 2 -0.5
v 5 3 -0.5
v 5 4 -0.5
v 5 5 -0.5
v 6 1 -0.5
v 6 3 -0.5
v 6 4 -0.5
v 7 1 -0.5
v 7 3 -0.5
v -1 3 -1.5
v -1 4 -1.5
v 0 3 -1.5
v 0 4 -1.5
v 4 3 -1.5
v 4 4 -1.5
v 5 1 -1.5
v 5 3 -1.5
v 5 4 -1.5
v 6 1 -1.5
v 6 3 -1.5
v -1 0 0.5
v 0 0 0.5
v -1 0 -0.5
v 0 0 -0.5
v 5 1 1.5
v 6 1 1.5
v 6 1 0.5
v 7 1 0.5
v 6 1 -0.5
v 7 1 -0.5
v 5 1 -1.5
v 6 1 -1.5
v 3 2 0.5
v 5 2 0.5
v 3 2 -0.5
v 5 2 -0.5
v -1 3 1.5
v 0 3 1.5
v 4 3 1.5
v 5 3 1.5
v -1 3 0.5
v 0 3 0.5
v 1 3 0.5
v 3 3 0.5
v 4 3 0.5
v 5 3 0.5
v -1 3 -0.5
v 0 3 -0.5
v 1 3 -0.5
v 3 3 -0.5
v 4 3 -0.5
v 5 3 -0.5
v -1 3 -1.5
v 0 3 -1.5
v 4 3 -1.5
v 5 3 -1.5
v 5 3 1.5
v 6 3 1.5
v 5 3 0.5
v 6 3 0.5
v 7 3 0.5
v 5 3 -0.5
v 6 3 -0.5
v 7 3 -0.5
v 5 3 -1.5
v 6 3 -1.5
v -1 4 1.5
v 0 4 1.5
v 4 4 1.5
v 5 4 1.5
v -1 4 0.5
v 0 4 0.5
v 1 4 0.5
v 4 4 0.5
v 5 4 0.5
v 6 4 0.5
v -1 4 -0.5
v 0 4 -0.5
v 1 4 -0.5
v 4 4 -0.5
v 5 4 -0.5
v 6 4 -0.5
v -1 4 -1.5
v 0 4 -1.5
v 4 4 -1.5
v 5 4 -1.5
v -1 5 0.5
v 0 5 0.5
v 1 5 0.5
v 4 5 0.5
v 5 5 0.5
v -1 5 -0.5
v 0 5 -0.5
v 1 5 -0.5
v 4 5 -0.5
v 5 5 -0.5
v 0 6 0.5
v 1 6 0.5
v 0 6 -0.5
v 1 6 -0.5

# faces
f 4/3/1 2/3/1 1/3/1
f 5/3/1 2/3/1 4/3/1
f 7/4/1 4/4/1 3/4/1
f 8/5/1 5/5/1 4/5/1
f 8/4/1 4/4/1 7/4/1
f 9/4/1 6/4/1 5/4/1
f 9/5/1 5/5/1 8/5/1
f 10/4/1 6/4/1 9/4/1
f 11/3/1 9/3/1 8/3/1
f 12/3/1 9/3/1 11/3/1
f 15/3/1 14/3/1 13/3/1
f 16/3/1 14/3/1 15/3/1
f 19/2/1 18/2/1 17/2/1
f 20/2/1 18/2/1 19/2/1
f 23/2/1 22/2/1 21/2/1
f 24/2/1 22/2/1 23/2/1
f 25/2/1 23/2/1 21/2/1
f 26/2/1 23/2/1 25/2/1
f 27/2/1 22/2/1 24/2/1
f 28/2/1 22/2/1 27/2/1
f 29/3/2 30/3/2 31/3/2
f 31/3/2 30/3/2 32/3/2
f 33/3/2 34/3/2 35/3/2
f 35/3/2 34/3/2 36/3/2
f 37/4/2 38/4/2 41/4/2
f 41/4/2 38/4/2 42/4/2
f 39/4/2 40/4/2 43/4/2
f 43/4/2 40/4/2 44/4/2
f 42/3/2 43/3/2 45/3/2
f 45/3/2 43/3/2 46/3/2
f 47/2/2 48/2/2 51/2/2
f 51/2/2 48/2/2 52/2/2
f 49/2/2 50/2/2 53/2/2
f 53/2/2 50/2/2 54/2/2
f 52/4/2 53/4/2 55/4/2
f 55/4/2 53/4/2 56/4/2
f 57/2/2 58/2/2 59/2/2
f 59/2/2 58/2/2 60/2/2
f 63/4/3 62/4/3 61/4/3
f 64/4/3 62/4/3 63/4/3
f 65/2/3 64/2/3 63/2/3
f 66/2/3 64/2/3 65/2/3
f 68/4/3 66/4/3 65/4/3
f 69/4/3 66/4/3 68/4/3
f 70/2/3 68/2/3 67/2/3
f 71/2/3 68/2/3 70/2/3
f 76/3/3 73/3/3 72/3/3
f 77/3/3 73/3/3 76/3/3
f 78/3/3 75/3/3 74/3/3
f 79/3/3 75/3/3 78/3/3
f 81/3/3 80/3/3 79/3/3
f 81/3/3 79/3/3 78/3/3
f 82/3/3 80/3/3 81/3/3
f 83/3/3 80/3/3 82/3/3
f 86/2/3 85/2/3 84/2/3
f 87/2/3 82/2/3 81/2/3
f 88/2/3 82/2/3 87/2/3
f 89/2/3 86/2/3 84/2/3
f 90/2/3 86/2/3 89/2/3
f 91/3/3 88/3/3 87/3/3
f 92/3/3 88/3/3 91/3/3
f 94/4/3 91/4/3 90/4/3
f 95/4/3 91/4/3 94/4/3
f 96/2/3 94/2/3 93/2/3
f 97/2/3 94/2/3 96/2/3
f 98/3/4 99/3/4 102/3/4
f 102/3/4 99/3/4 103/3/4
f 100/3/4 101/3/4 104/3/4
f 104/3/4 101/3/4 105/3/4
f 105/3/4 106/3/4 107/3/4
f 104/3/4 105/3/4 107/3/4
f 107/3/4 106/3/4 108/3/4
f 108/3/4 106/3/4 109/3/4
f 110/2/4 111/2/4 112/2/4
f 107/2/4 108/2/4 113/2/4
f 113/2/4 108/2/4 114/2/4
f 110/2/4 112/2/4 115/2/4
f 115/2/4 112/2/4 116/2/4
f 113/3/4 114/3/4 117/3/4
f 117/3/4 114/3/4 118/3/4
f 116/4/4 117/4/4 120/4/4
f 120/4/4 117/4/4 121/4/4
f 119/2/4 120/2/4 122/2/4
f 122/2/4 120/2/4 123/2/4
f 124/4/4 125/4/4 126/4/4
f 126/4/4 125/4/4 127/4/4
f 126/2/4 127/2/4 128/2/4
f 128/2/4 127/2/4 129/2/4
f 128/4/4 129/4/4 131/4/4
f 131/4/4 129/4/4 132/4/4
f 130/2/4 131/2/4 133/2/4
f 133/2/4 131/2/4 134/2/4
f 137/3/5 136/3/5 135/3/5
f 138/3/5 136/3/5 137/3/5
f 141/2/5 140/2/5 139/2/5
f 143/2/5 141/2/5 139/2/5
f 143/2/5 142/2/5 141/2/5
f 144/2/5 142/2/5 143/2/5
f 145/2/5 143/2/5 139/2/5
f 146/2/5 143/2/5 145/2/5
f 149/2/5 148/2/5 147/2/5
f 150/2/5 148/2/5 149/2/5
f 155/4/5 152/4/5 151/4/5
f 156/2/5 153/2/5 152/2/5
f 156/4/5 152/4/5 155/4/5
f 157/2/5 153/2/5 156/2/5
f 158/2/5 153/2/5 157/2/5
f 159/4/5 154/4/5 153/4/5
f 159/2/5 153/2/5 158/2/5
f 160/4/5 154/4/5 159/4/5
f 162/3/5 157/3/5 156/3/5
f 163/2/5 158/2/5 157/2/5
f 163/3/5 157/3/5 162/3/5
f 164/2/5 158/2/5 163/2/5
f 167/4/5 162/4/5 161/4/5
f 168/2/5 163/2/5 162/2/5
f 168/4/5 162/4/5 167/4/5
f 168/2/5 164/2/5 163/2/5
f 168/2/5 165/2/5 164/2/5
f 169/4/5 166/4/5 165/4/5
f 169/2/5 165/2/5 168/2/5
f 170/4/5 166/4/5 169/4/5
f 171/2/6 172/2/6 173/2/6
f 173/2/6 172/2/6 174/2/6
f 174/2/6 175/2/6 177/2/6
f 177/2/6 175/2/6 178/2/6
f 176/2/6 177/2/6 179/2/6
f 179/2/6 177/2/6 180/2/6
f 181/4/6 182/4/6 185/4/6
f 182/2/6 183/2/6 186/2/6
f 185/4/6 182/4/6 186/4/6
f 186/2/6 183/2/6 187/2/6
f 183/4/6 184/4/6 188/4/6
f 187/2/6 183/2/6 188/2/6
f 188/4/6 184/4/6 189/4/6
f 189/4/6 190/4/6 195/4/6
f 195/4/6 190/4/6 196/4/6
f 191/4/6 192/4/6 197/4/6
f 193/2/6 194/2/6 198/2/6
f 197/4/6 192/4/6 198/4/6
f 192/2/6 193/2/6 198/2/6
f 194/4/6 195/4/6 199/4/6
f 198/2/6 194/2/6 199/2/6
f 199/4/6 195/4/6 200/4/6
f 201/3/6 202/3/6 206/3/6
f 206/3/6 202/3/6 207/3/6
f 203/2/6 204/2/6 208/2/6
f 204/3/6 205/3/6 209/3/6
f 208/2/6 204/2/6 209/2/6
f 209/3/6 205/3/6 210/3/6
f 211/3/6 212/3/6 213/3/6
f 213/3/6 212/3/6 214/3/6
