# MagicaVoxel @ Ephtracy

# group
g SemiGun

# material
mtllib SemiGun.mtl
usemtl palette

# normals
vn -1 0 0
vn 1 0 0
vn 0 0 1
vn 0 0 -1
vn 0 -1 0
vn 0 1 0

# texcoords
vt 0.974609 0.5
vt 0.978516 0.5
vt 0.986328 0.5
vt 0.990234 0.5

# verts
v -0.5 0 5.5
v -0.5 0 2.5
v -0.5 1 5.5
v -0.5 1 4.5
v -0.5 1 2.5
v -0.5 1 1.5
v -0.5 2 4.5
v -0.5 2 3.5
v -0.5 2 2.5
v -0.5 2 1.5
v -0.5 2 0.5
v -0.5 2 -1.5
v -0.5 2 -2.5
v -0.5 2 -5.5
v -0.5 3 4.5
v -0.5 3 3.5
v -0.5 3 2.5
v -0.5 3 1.5
v -0.5 3 0.5
v -0.5 3 -0.5
v -0.5 3 -1.5
v -0.5 3 -2.5
v -0.5 3 -3.5
v -0.5 3 -4.5
v -0.5 3 -5.5
v -0.5 4 3.5
v -0.5 4 2.5
v -0.5 4 1.5
v -0.5 4 -0.5
v -0.5 4 -1.5
v -0.5 4 -3.5
v -0.5 4 -4.5
v 0.5 0 5.5
v 0.5 0 2.5
v 0.5 1 5.5
v 0.5 1 4.5
v 0.5 1 2.5
v 0.5 1 1.5
v 0.5 2 4.5
v 0.5 2 3.5
v 0.5 2 2.5
v 0.5 2 1.5
v 0.5 2 0.5
v 0.5 2 -1.5
v 0.5 2 -2.5
v 0.5 2 -5.5
v 0.5 3 4.5
v 0.5 3 3.5
v 0.5 3 2.5
v 0.5 3 1.5
v 0.5 3 0.5
v 0.5 3 -0.5
v 0.5 3 -1.5
v 0.5 3 -2.5
v 0.5 3 -3.5
v 0.5 3 -4.5
v 0.5 3 -5.5
v 0.5 4 3.5
v 0.5 4 2.5
v 0.5 4 1.5
v 0.5 4 -0.5
v 0.5 4 -1.5
v 0.5 4 -3.5
v 0.5 4 -4.5
v -0.5 0 5.5
v -0.5 1 5.5
v 0.5 0 5.5
v 0.5 1 5.5
v -0.5 1 4.5
v -0.5 2 4.5
v -0.5 3 4.5
v 0.5 1 4.5
v 0.5 2 4.5
v 0.5 3 4.5
v -0.5 3 3.5
v -0.5 4 3.5
v 0.5 3 3.5
v 0.5 4 3.5
v -0.5 3 -3.5
v -0.5 4 -3.5
v 0.5 3 -3.5
v 0.5 4 -3.5
v -0.5 0 2.5
v -0.5 1 2.5
v 0.5 0 2.5
v 0.5 1 2.5
v -0.5 1 1.5
v -0.5 2 1.5
v 0.5 1 1.5
v 0.5 2 1.5
v -0.5 3 -1.5
v -0.5 4 -1.5
v 0.5 3 -1.5
v 0.5 4 -1.5
v -0.5 3 -4.5
v -0.5 4 -4.5
v 0.5 3 -4.5
v 0.5 4 -4.5
v -0.5 2 -5.5
v -0.5 3 -5.5
v 0.5 2 -5.5
v 0.5 3 -5.5
v -0.5 0 5.5
v 0.5 0 5.5
v -0.5 0 2.5
v 0.5 0 2.5
v -0.5 1 2.5
v 0.5 1 2.5
v -0.5 1 1.5
v 0.5 1 1.5
v -0.5 2 1.5
v 0.5 2 1.5
v -0.5 2 0.5
v 0.5 2 0.5
v -0.5 2 -1.5
v 0.5 2 -1.5
v -0.5 2 -2.5
v 0.5 2 -2.5
v -0.5 2 -5.5
v 0.5 2 -5.5
v -0.5 1 5.5
v 0.5 1 5.5
v -0.5 1 4.5
v 0.5 1 4.5
v -0.5 3 4.5
v 0.5 3 4.5
v -0.5 3 3.5
v 0.5 3 3.5
v -0.5 3 -1.5
v 0.5 3 -1.5
v -0.5 3 -2.5
v 0.5 3 -2.5
v -0.5 3 -3.5
v 0.5 3 -3.5
v -0.5 3 -4.5
v 0.5 3 -4.5
v -0.5 3 -5.5
v 0.5 3 -5.5
v -0.5 4 3.5
v 0.5 4 3.5
v -0.5 4 2.5
v 0.5 4 2.5
v -0.5 4 1.5
v 0.5 4 1.5
v -0.5 4 -0.5
v 0.5 4 -0.5
v -0.5 4 -1.5
v 0.5 4 -1.5
v -0.5 4 -3.5
v 0.5 4 -3.5
v -0.5 4 -4.5
v 0.5 4 -4.5

# faces
f 3/2/1 2/2/1 1/2/1
f 4/2/1 2/2/1 3/2/1
f 5/2/1 2/2/1 4/2/1
f 7/2/1 6/2/1 5/2/1
f 7/2/1 5/2/1 4/2/1
f 8/2/1 6/2/1 7/2/1
f 9/2/1 6/2/1 8/2/1
f 10/2/1 6/2/1 9/2/1
f 15/1/1 8/1/1 7/1/1
f 16/2/1 9/2/1 8/2/1
f 16/1/1 8/1/1 15/1/1
f 17/3/1 10/3/1 9/3/1
f 17/2/1 9/2/1 16/2/1
f 17/3/1 11/3/1 10/3/1
f 18/3/1 11/3/1 17/3/1
f 19/4/1 12/4/1 11/4/1
f 19/3/1 11/3/1 18/3/1
f 20/4/1 12/4/1 19/4/1
f 21/3/1 13/3/1 12/3/1
f 21/4/1 12/4/1 20/4/1
f 22/1/1 14/1/1 13/1/1
f 22/3/1 13/3/1 21/3/1
f 23/1/1 14/1/1 22/1/1
f 24/1/1 14/1/1 23/1/1
f 25/1/1 14/1/1 24/1/1
f 26/1/1 17/1/1 16/1/1
f 27/2/1 18/2/1 17/2/1
f 27/1/1 17/1/1 26/1/1
f 28/3/1 20/3/1 19/3/1
f 28/2/1 18/2/1 27/2/1
f 28/3/1 19/3/1 18/3/1
f 29/4/1 21/4/1 20/4/1
f 29/3/1 20/3/1 28/3/1
f 30/4/1 21/4/1 29/4/1
f 31/1/1 24/1/1 23/1/1
f 32/1/1 24/1/1 31/1/1
f 33/2/2 34/2/2 35/2/2
f 35/2/2 34/2/2 36/2/2
f 36/2/2 34/2/2 37/2/2
f 37/2/2 38/2/2 39/2/2
f 36/2/2 37/2/2 39/2/2
f 39/2/2 38/2/2 40/2/2
f 40/2/2 38/2/2 41/2/2
f 41/2/2 38/2/2 42/2/2
f 39/1/2 40/1/2 47/1/2
f 40/2/2 41/2/2 48/2/2
f 47/1/2 40/1/2 48/1/2
f 41/3/2 42/3/2 49/3/2
f 48/2/2 41/2/2 49/2/2
f 42/3/2 43/3/2 49/3/2
f 49/3/2 43/3/2 50/3/2
f 43/4/2 44/4/2 51/4/2
f 50/3/2 43/3/2 51/3/2
f 51/4/2 44/4/2 52/4/2
f 44/3/2 45/3/2 53/3/2
f 52/4/2 44/4/2 53/4/2
f 45/1/2 46/1/2 54/1/2
f 53/3/2 45/3/2 54/3/2
f 54/1/2 46/1/2 55/1/2
f 55/1/2 46/1/2 56/1/2
f 56/1/2 46/1/2 57/1/2
f 48/1/2 49/1/2 58/1/2
f 49/2/2 50/2/2 59/2/2
f 58/1/2 49/1/2 59/1/2
f 51/3/2 52/3/2 60/3/2
f 59/2/2 50/2/2 60/2/2
f 50/3/2 51/3/2 60/3/2
f 52/4/2 53/4/2 61/4/2
f 60/3/2 52/3/2 61/3/2
f 61/4/2 53/4/2 62/4/2
f 55/1/2 56/1/2 63/1/2
f 63/1/2 56/1/2 64/1/2
f 67/2/3 66/2/3 65/2/3
f 68/2/3 66/2/3 67/2/3
f 72/2/3 70/2/3 69/2/3
f 73/1/3 71/1/3 70/1/3
f 73/2/3 70/2/3 72/2/3
f 74/1/3 71/1/3 73/1/3
f 77/1/3 76/1/3 75/1/3
f 78/1/3 76/1/3 77/1/3
f 81/1/3 80/1/3 79/1/3
f 82/1/3 80/1/3 81/1/3
f 83/2/4 84/2/4 85/2/4
f 85/2/4 84/2/4 86/2/4
f 87/2/4 88/2/4 89/2/4
f 89/2/4 88/2/4 90/2/4
f 91/4/4 92/4/4 93/4/4
f 93/4/4 92/4/4 94/4/4
f 95/1/4 96/1/4 97/1/4
f 97/1/4 96/1/4 98/1/4
f 99/1/4 100/1/4 101/1/4
f 101/1/4 100/1/4 102/1/4
f 105/2/5 104/2/5 103/2/5
f 106/2/5 104/2/5 105/2/5
f 109/2/5 108/2/5 107/2/5
f 110/2/5 108/2/5 109/2/5
f 113/3/5 112/3/5 111/3/5
f 114/3/5 112/3/5 113/3/5
f 115/4/5 114/4/5 113/4/5
f 116/4/5 114/4/5 115/4/5
f 117/3/5 116/3/5 115/3/5
f 118/3/5 116/3/5 117/3/5
f 119/1/5 118/1/5 117/1/5
f 120/1/5 118/1/5 119/1/5
f 121/2/6 122/2/6 123/2/6
f 123/2/6 122/2/6 124/2/6
f 125/1/6 126/1/6 127/1/6
f 127/1/6 126/1/6 128/1/6
f 129/3/6 130/3/6 131/3/6
f 131/3/6 130/3/6 132/3/6
f 131/1/6 132/1/6 133/1/6
f 133/1/6 132/1/6 134/1/6
f 135/1/6 136/1/6 137/1/6
f 137/1/6 136/1/6 138/1/6
f 139/1/6 140/1/6 141/1/6
f 141/1/6 140/1/6 142/1/6
f 141/2/6 142/2/6 143/2/6
f 143/2/6 142/2/6 144/2/6
f 143/3/6 144/3/6 145/3/6
f 145/3/6 144/3/6 146/3/6
f 145/4/6 146/4/6 147/4/6
f 147/4/6 146/4/6 148/4/6
f 149/1/6 150/1/6 151/1/6
f 151/1/6 150/1/6 152/1/6
